<svg width="85" height="85" viewBox="0 0 85 85" fill="none" xmlns="http://www.w3.org/2000/svg">
<path d="M54 41.75C54.6904 41.75 55.25 42.3096 55.25 43V83.2688L44.1074 75.7286C43.1765 75.0987 41.9559 75.0987 41.025 75.7286L29.75 83.3584V43C29.75 42.3096 30.3096 41.75 31 41.75H54Z" fill="white" stroke="#98A300" stroke-width="1.5" stroke-linejoin="round"/>
<circle cx="42" cy="34" r="33" fill="#F2F5CC"/>
<path d="M40.0981 17.0953C40.6968 15.2527 43.3036 15.2527 43.9024 17.0953L46.9163 26.3714C47.1841 27.1954 47.952 27.7534 48.8184 27.7534L58.5718 27.7534C60.5093 27.7534 61.3148 30.2326 59.7474 31.3714L51.8567 37.1043C51.1558 37.6136 50.8625 38.5163 51.1302 39.3404L54.1442 48.6164C54.7429 50.459 52.6339 51.9913 51.0665 50.8525L43.1758 45.1196C42.4748 44.6103 41.5256 44.6103 40.8247 45.1196L32.934 50.8525C31.3666 51.9913 29.2576 50.459 29.8563 48.6164L32.8703 39.3404C33.138 38.5163 32.8447 37.6136 32.1437 37.1043L24.2531 31.3714C22.6856 30.2326 23.4912 27.7534 25.4286 27.7534L35.182 27.7534C36.0485 27.7534 36.8164 27.1954 37.0842 26.3714L40.0981 17.0953Z" fill="white" stroke="#98A300" stroke-width="1.5" stroke-linejoin="round"/>
</svg>
