<svg width="85" height="85" viewBox="0 0 85 85" fill="none" xmlns="http://www.w3.org/2000/svg">
    <rect x="6" y="1" width="55" height="83" rx="10" fill="#F2F5CC"/>
    <path d="M71 24.75C74.4518 24.75 77.25 27.5482 77.25 31V53C77.25 56.4518 74.4518 59.25 71 59.25H29C25.5482 59.25 22.75 56.4518 22.75 53L22.75 31C22.75 27.5482 25.5482 24.75 29 24.75L71 24.75Z" fill="white" stroke="#98A300" stroke-width="1.5"/>
    <path d="M71 37.4813C71 35.5722 69.5553 34 67.7666 34L32.199 34C30.4447 34 29 35.5722 29 37.4813C29 39.4278 30.4447 41 32.199 41L67.7666 41C69.5553 41 71 39.4278 71 37.4813Z" fill="#F2F5CC" stroke="#98A300" stroke-width="1.5"/>
    <path d="M37 72C37 74.2091 35.2091 76 33 76C30.7909 76 29 74.2091 29 72C29 69.7909 30.7909 68 33 68C35.2091 68 37 69.7909 37 72Z" fill="white" stroke="#98A300" stroke-width="1.5"/>
    <path d="M43 12.4813C43 10.5722 41.4624 9 39.5588 9L27.4046 9C25.5376 9 24 10.5722 24 12.4813C24 14.4278 25.5376 16 27.4046 16L39.5588 16C41.4624 16 43 14.4278 43 12.4813Z" fill="white" stroke="#98A300" stroke-width="1.5"/>
</svg>
