<?xml version="1.0" encoding="UTF-8" standalone="no"?>
<!-- Created with Inkscape (http://www.inkscape.org/) -->

<svg
   width="521.70123"
   height="87.818481"
   viewBox="0 0 138.03345 23.235307"
   version="1.1"
   id="svg1"
   inkscape:version="1.3 (0e150ed6c4, 2023-07-21)"
   sodipodi:docname="výkres.svg"
   xml:space="preserve"
   xmlns:inkscape="http://www.inkscape.org/namespaces/inkscape"
   xmlns:sodipodi="http://sodipodi.sourceforge.net/DTD/sodipodi-0.dtd"
   xmlns="http://www.w3.org/2000/svg"
   xmlns:svg="http://www.w3.org/2000/svg"><sodipodi:namedview
     id="namedview1"
     pagecolor="#ffffff"
     bordercolor="#000000"
     borderopacity="0.25"
     inkscape:showpageshadow="2"
     inkscape:pageopacity="0.0"
     inkscape:pagecheckerboard="0"
     inkscape:deskcolor="#d1d1d1"
     inkscape:document-units="mm"
     showgrid="true"
     inkscape:zoom="1.5634817"
     inkscape:cx="546.5366"
     inkscape:cy="268.31142"
     inkscape:window-width="2560"
     inkscape:window-height="1516"
     inkscape:window-x="0"
     inkscape:window-y="0"
     inkscape:window-maximized="1"
     inkscape:current-layer="layer1"><inkscape:grid
       id="grid1"
       units="mm"
       originx="-134.51891"
       originy="-278.05516"
       spacingx="0.99999997"
       spacingy="1"
       empcolor="#0099e5"
       empopacity="0.30196078"
       color="#0099e5"
       opacity="0.14901961"
       empspacing="5"
       dotted="false"
       gridanglex="30"
       gridanglez="30"
       visible="true" /></sodipodi:namedview><defs
     id="defs1"><rect
       x="355.47949"
       y="178.3904"
       width="385.22202"
       height="112.98853"
       id="rect8" /><rect
       x="355.47949"
       y="178.3904"
       width="617.99792"
       height="95.691841"
       id="rect9" /></defs><g
     inkscape:label="Vrstva 1"
     inkscape:groupmode="layer"
     id="layer1"
     transform="translate(-35.591462,-73.568762)"><path
       style="fill:#ffffff;fill-opacity:1;stroke:#000000;stroke-width:0;stroke-linecap:round;stroke-linejoin:round"
       d="m 74.259843,79.656893 c -1.089775,-0.570506 -4.063097,0.38979 -4.837673,0.88816 -0.253604,-0.45122 -0.54136,-0.945427 -0.853331,-1.451445 -1.595112,-2.587183 -2.947837,-4.086462 -4.135654,-4.583304 -0.04766,-0.01997 -0.09694,-0.03593 -0.147234,-0.04784 -0.101868,-0.02404 -2.57053,-0.588344 -9.017929,-0.588344 -6.447399,0 -8.916065,0.564385 -9.018016,0.588344 -0.05038,0.01189 -0.09957,0.02786 -0.147235,0.04784 -1.187731,0.496927 -2.54054,1.996121 -4.135653,4.583304 -0.311971,0.506018 -0.599814,1.000225 -0.853332,1.451445 -0.774575,-0.49837 -3.747983,-1.458666 -4.837673,-0.88816 -1.124437,0.58868 -0.673897,2.44156 0,2.94409 0.420719,0.31367 1.575063,0.40917 2.790661,0.32837 -0.275013,0.36626 -0.491744,0.77848 -0.638469,1.22248 1.917023,0.35938 6.423355,0.34383 5.749882,1.80488 -0.98536,2.13715 -4.01824,1.84132 -5.887772,0.89114 l 0.349099,6.02566 c 0,1.40811 1.141514,2.54955 2.549631,2.54955 h 1.533262 c 1.408117,0 2.549547,-1.14144 2.549547,-2.54955 l -0.05004,-0.54017 h 20.092218 l -0.05004,0.54017 c 0,1.40811 1.141427,2.54955 2.549546,2.54955 h 1.533261 c 1.408119,0 2.549632,-1.14144 2.549632,-2.54955 l 0.349014,-6.02566 c -1.869449,0.95018 -4.902327,1.2461 -5.887687,-0.89114 -0.673556,-1.46105 3.832773,-1.4455 5.749881,-1.80488 -0.146723,-0.44408 -0.36337,-0.8563 -0.638468,-1.22248 1.215599,0.0809 2.369941,-0.0146 2.790661,-0.32837 0.673726,-0.50253 1.124351,-2.35541 -8.6e-5,-2.94409 z m -14.085842,9.84467 h -9.812215 l -1.019513,-3.7174 H 61.19343 Z m -17.287028,-8.28253 c 1.220527,-2.135365 2.780212,-4.41576 3.870156,-4.941319 0.456996,-0.0898 2.950299,-0.522585 8.510807,-0.522585 5.56688,0 8.059586,0.433803 8.510552,0.5225 1.088586,0.524794 2.64861,2.805529 3.869816,4.941404 z"
       id="path2"
       inkscape:export-filename="logo_white.svg"
       inkscape:export-xdpi="96"
       inkscape:export-ydpi="96" /><text
       xml:space="preserve"
       transform="matrix(0.27022787,0,0,0.27022787,-19.015587,21.942229)"
       id="text7"
       style="font-size:74.6667px;white-space:pre;shape-inside:url(#rect8);display:inline;fill:#ffffff;fill-opacity:1"><tspan
         x="355.48047"
         y="247.04819"
         id="tspan2"><tspan
           style="font-weight:bold;font-family:'Roboto Condensed';-inkscape-font-specification:'Roboto Condensed,  Bold'"
           id="tspan1">Nebourej.cz</tspan></tspan></text><text
       xml:space="preserve"
       transform="matrix(0.27022787,0,0,0.27022787,-18.218848,40.604705)"
       id="text8"
       style="font-size:26.1097px;white-space:pre;shape-inside:url(#rect9);display:inline;fill:#ffffff;fill-opacity:1"><tspan
         x="355.48047"
         y="202.39903"
         id="tspan4"><tspan
           style="font-weight:bold;font-family:'Roboto Condensed';-inkscape-font-specification:'Roboto Condensed,  Bold'"
           id="tspan3">Jezděte, nebourejte</tspan></tspan></text></g></svg>
